<?xml version="1.0" encoding="utf-8"?>
<!-- Generator: Adobe Illustrator 27.5.0, SVG Export Plug-In . SVG Version: 6.00 Build 0)  -->
<svg version="1.1" xmlns="http://www.w3.org/2000/svg" xmlns:xlink="http://www.w3.org/1999/xlink" x="0px" y="0px"
	 viewBox="0 0 500 500" style="enable-background:new 0 0 500 500;" xml:space="preserve">
<g id="BACKGROUND">
	<rect style="fill:#23123F;" width="500" height="500"/>
</g>
<g id="OBJECTS">
	<g>
		<rect style="fill:#1E1038;" width="500" height="402.388"/>
		<ellipse style="opacity:0.1;fill:#23123F;" cx="250" cy="436.404" rx="189.606" ry="13.937"/>
		<g>
			<rect x="83.622" y="49.658" style="fill:#251544;" width="332.756" height="248.269"/>
			<rect x="93.684" y="58.665" style="fill:#29174C;" width="312.632" height="230.256"/>
			<g>
				<path style="fill:#38236D;" d="M127.821,129.842c0-0.663-0.538-1.201-1.201-1.201c-0.663,0-1.201,0.538-1.201,1.201
					s0.538,1.201,1.201,1.201C127.284,131.044,127.821,130.506,127.821,129.842z"/>
				<path style="fill:#38236D;" d="M246.062,115.026c0-0.663-0.538-1.201-1.201-1.201c-0.663,0-1.201,0.538-1.201,1.201
					c0,0.664,0.538,1.201,1.201,1.201C245.524,116.227,246.062,115.689,246.062,115.026z"/>
				<path style="fill:#38236D;" d="M164.657,127.44c0-0.663-0.538-1.201-1.201-1.201s-1.201,0.538-1.201,1.201
					c0,0.663,0.538,1.201,1.201,1.201S164.657,128.104,164.657,127.44z"/>
				<path style="fill:#38236D;" d="M151.874,195.909c0-0.663-0.538-1.201-1.201-1.201c-0.663,0-1.201,0.538-1.201,1.201
					c0,0.663,0.538,1.201,1.201,1.201C151.336,197.111,151.874,196.573,151.874,195.909z"/>
				<circle style="fill:#38236D;" cx="110.089" cy="185.575" r="1.201"/>
				<circle style="fill:#38236D;" cx="172.179" cy="82.835" r="1.201"/>
				<path style="fill:#38236D;" d="M108.973,84.037c0-0.663-0.538-1.201-1.201-1.201s-1.201,0.538-1.201,1.201
					s0.538,1.201,1.201,1.201S108.973,84.7,108.973,84.037z"/>
				<circle style="fill:#38236D;" cx="173.381" cy="138.862" r="1.201"/>
				<path style="fill:#38236D;" d="M111.29,69.531c0-0.663-0.538-1.201-1.201-1.201s-1.201,0.538-1.201,1.201
					c0,0.664,0.538,1.201,1.201,1.201S111.29,70.195,111.29,69.531z"/>
				<path style="fill:#38236D;" d="M372.402,87.846c0-0.663-0.538-1.201-1.201-1.201S370,87.183,370,87.846
					c0,0.663,0.538,1.201,1.201,1.201S372.402,88.51,372.402,87.846z"/>
				<path style="fill:#38236D;" d="M279.072,143.744c0-0.663-0.538-1.201-1.201-1.201c-0.663,0-1.201,0.538-1.201,1.201
					c0,0.663,0.538,1.201,1.201,1.201C278.534,144.945,279.072,144.407,279.072,143.744z"/>
				<path style="fill:#38236D;" d="M388.71,214.149c0-0.663-0.538-1.201-1.201-1.201c-0.663,0-1.201,0.538-1.201,1.201
					c0,0.663,0.538,1.201,1.201,1.201C388.172,215.35,388.71,214.812,388.71,214.149z"/>
				<circle style="fill:#38236D;" cx="347.051" cy="185.575" r="1.201"/>
				<path style="fill:#38236D;" d="M352.868,212.947c0-0.663-0.538-1.201-1.201-1.201c-0.663,0-1.201,0.538-1.201,1.201
					c0,0.663,0.538,1.201,1.201,1.201C352.33,214.149,352.868,213.611,352.868,212.947z"/>
				<circle style="fill:#38236D;" cx="325.767" cy="138.862" r="1.201"/>
				<path style="fill:#38236D;" d="M293.173,82.835c0-0.663-0.538-1.201-1.201-1.201c-0.663,0-1.201,0.538-1.201,1.201
					c0,0.663,0.538,1.201,1.201,1.201C292.636,84.037,293.173,83.499,293.173,82.835z"/>
				<path style="fill:#38236D;" d="M236.722,109.385c0-0.663-0.538-1.201-1.201-1.201c-0.663,0-1.201,0.538-1.201,1.201
					s0.538,1.201,1.201,1.201C236.184,110.586,236.722,110.048,236.722,109.385z"/>
				<circle style="fill:#38236D;" cx="348.253" cy="71.934" r="1.201"/>
				<path style="fill:#38236D;" d="M359.664,154c0-0.663-0.538-1.201-1.201-1.201s-1.201,0.538-1.201,1.201s0.538,1.201,1.201,1.201
					S359.664,154.663,359.664,154z"/>
				<path style="fill:#38236D;" d="M393.43,111.787c0-0.664-0.538-1.201-1.201-1.201c-0.663,0-1.201,0.538-1.201,1.201
					c0,0.663,0.538,1.201,1.201,1.201C392.892,112.988,393.43,112.451,393.43,111.787z"/>
				<circle style="fill:#38236D;" cx="396.706" cy="275.901" r="1.201"/>
				<circle style="fill:#38236D;" cx="391.027" cy="265.353" r="1.201"/>
				<path style="fill:#543AA5;" d="M112.491,233.589c0-0.663-0.538-1.201-1.201-1.201c-0.663,0-1.201,0.538-1.201,1.201
					c0,0.663,0.538,1.201,1.201,1.201C111.953,234.79,112.491,234.253,112.491,233.589z"/>
				<path style="fill:#543AA5;" d="M133.574,177.701c0-0.663-0.538-1.201-1.201-1.201c-0.663,0-1.201,0.538-1.201,1.201
					c0,0.663,0.538,1.201,1.201,1.201C133.036,178.902,133.574,178.364,133.574,177.701z"/>
				<path style="fill:#543AA5;" d="M354.069,277.511c0-0.663-0.538-1.201-1.201-1.201s-1.201,0.538-1.201,1.201
					c0,0.663,0.538,1.201,1.201,1.201S354.069,278.175,354.069,277.511z"/>
				<path style="fill:#543AA5;" d="M263.539,96.388c0-0.663-0.538-1.201-1.201-1.201c-0.664,0-1.201,0.538-1.201,1.201
					c0,0.663,0.538,1.201,1.201,1.201C263.001,97.59,263.539,97.052,263.539,96.388z"/>
				<path style="fill:#543AA5;" d="M215.292,70.732c0-0.663-0.538-1.201-1.201-1.201c-0.663,0-1.201,0.538-1.201,1.201
					c0,0.663,0.538,1.201,1.201,1.201C214.754,71.934,215.292,71.396,215.292,70.732z"/>
				<circle style="fill:#543AA5;" cx="164.657" cy="143.744" r="1.201"/>
				<path style="fill:#543AA5;" d="M240.223,149.311c0-0.663-0.538-1.201-1.201-1.201c-0.663,0-1.201,0.538-1.201,1.201
					c0,0.663,0.538,1.201,1.201,1.201C239.685,150.513,240.223,149.975,240.223,149.311z"/>
				<path style="fill:#543AA5;" d="M335.064,128.641c0-0.663-0.538-1.201-1.201-1.201c-0.664,0-1.201,0.538-1.201,1.201
					c0,0.663,0.538,1.201,1.201,1.201C334.526,129.842,335.064,129.305,335.064,128.641z"/>
				<path style="fill:#543AA5;" d="M294.375,69.531c0-0.663-0.538-1.201-1.201-1.201s-1.201,0.538-1.201,1.201
					c0,0.664,0.538,1.201,1.201,1.201S294.375,70.195,294.375,69.531z"/>
				<path style="fill:#543AA5;" d="M390.056,131.044c0-0.663-0.538-1.201-1.201-1.201s-1.201,0.538-1.201,1.201
					c0,0.663,0.538,1.201,1.201,1.201S390.056,131.707,390.056,131.044z"/>
				<path style="fill:#543AA5;" d="M121.846,119.701c0-0.663-0.538-1.201-1.201-1.201s-1.201,0.538-1.201,1.201
					s0.538,1.201,1.201,1.201S121.846,120.364,121.846,119.701z"/>
				<circle style="fill:#543AA5;" cx="137.922" cy="95.187" r="1.201"/>
				<circle style="fill:#543AA5;" cx="378.888" cy="228.376" r="1.201"/>
				<path style="fill:#543AA5;" d="M396.706,177.701c0-0.663-0.538-1.201-1.201-1.201c-0.663,0-1.201,0.538-1.201,1.201
					c0,0.663,0.538,1.201,1.201,1.201C396.168,178.902,396.706,178.364,396.706,177.701z"/>
				<path style="fill:#543AA5;" d="M113.693,175.298c0-0.663-0.538-1.201-1.201-1.201c-0.663,0-1.201,0.538-1.201,1.201
					c0,0.663,0.538,1.201,1.201,1.201C113.155,176.499,113.693,175.962,113.693,175.298z"/>
				<path style="fill:#543AA5;" d="M145.106,251.647c0-0.663-0.538-1.201-1.201-1.201c-0.663,0-1.201,0.538-1.201,1.201
					c0,0.663,0.538,1.201,1.201,1.201C144.568,252.848,145.106,252.31,145.106,251.647z"/>
			</g>
			<rect x="188.878" y="58.665" style="fill:#251544;" width="6.732" height="230.256"/>
			<rect x="304.39" y="58.665" style="fill:#251544;" width="6.732" height="230.256"/>
			<rect x="93.684" y="58.665" style="opacity:0.2;fill:#23123F;" width="312.632" height="2.63"/>
		</g>
	</g>
	<path style="fill:#F2E399;" d="M499.359,193.813c-0.241,0-0.242,0.375,0,0.375C499.6,194.188,499.601,193.813,499.359,193.813z"/>
	<g>
		<g>
			<polygon style="fill:#F4D0D9;" points="267.459,278.579 232.541,278.579 229.337,303.342 270.663,303.342 			"/>
			<path style="fill:#180D2D;" d="M334.095,282.278H165.905c-3.101,0-5.614-2.513-5.614-5.614V164.422
				c0-3.101,2.514-5.614,5.614-5.614h168.189c3.101,0,5.614,2.514,5.614,5.614v112.242
				C339.709,279.764,337.195,282.278,334.095,282.278z"/>
			<path style="fill:#23123F;" d="M321.842,172.295H178.158c-0.995,0-1.802,0.807-1.802,1.802l0,0c0,0.995,0.807,1.802,1.802,1.802
				h143.684c0.995,0,1.802-0.807,1.802-1.802l0,0C323.644,173.102,322.837,172.295,321.842,172.295z"/>
			<g style="opacity:0.01;">
				<polygon style="fill:#FFFFFF;" points="175.995,158.808 160.291,174.512 160.291,261.219 262.702,158.808 				"/>
				<path style="fill:#FFFFFF;" d="M277.021,158.808l-116.73,116.73v1.531c0,2.877,2.332,5.21,5.21,5.21h7.987l123.47-123.47
					H277.021z"/>
				<path style="fill:#FFFFFF;" d="M334.499,158.808h-23.223l-123.47,123.47h86.707l65.196-65.196v-53.065
					C339.709,161.14,337.376,158.808,334.499,158.808z"/>
				<polygon style="fill:#FFFFFF;" points="308.768,282.278 339.709,251.337 339.709,231.401 288.832,282.278 				"/>
			</g>
			<path style="fill:#FFE9EE;" d="M339.709,277.069v-11.341H160.291v11.341c0,2.877,2.332,5.209,5.21,5.209h168.999
				C337.376,282.278,339.709,279.945,339.709,277.069z"/>
			<polygon style="fill:#FFE9EE;" points="270.028,299.001 229.972,299.001 222.129,303.342 277.871,303.342 			"/>
			<g>
				<path style="fill:#F4D0D9;" d="M283.359,206.839h-39.202c-2.107,0-3.816,1.708-3.816,3.816v28.847
					c0,2.107,1.708,3.816,3.816,3.816h39.202c2.107,0,3.816-1.708,3.816-3.816v-28.847
					C287.174,208.547,285.466,206.839,283.359,206.839z"/>
				<path style="fill:#EABECB;" d="M262.237,221.111l-21.047,20.763c0.427,0.533,0.987,0.949,1.639,1.192l20.812-20.531
					L262.237,221.111z"/>
				<path style="fill:#EABECB;" d="M265.786,221.111l-1.404,1.424l20.656,20.377c0.612-0.302,1.136-0.754,1.509-1.321
					L265.786,221.111z"/>
				<path style="fill:#FFE9EE;" d="M283.359,206.839h-39.202c-2.107,0-3.816,1.708-3.816,3.816l22.063,18.879
					c0.779,0.667,1.928,0.667,2.707,0l22.063-18.879C287.174,208.547,285.466,206.839,283.359,206.839z"/>
				<path style="fill:#D971A1;" d="M284.495,206.839c0-3.831-3.105-6.936-6.936-6.936c-3.831,0-6.936,3.105-6.936,6.936
					c0,3.831,3.105,6.936,6.936,6.936C281.39,213.775,284.495,210.669,284.495,206.839z"/>
				
					<text transform="matrix(0.9772 0 0 1 272.8513 209.9698)" style="fill:#FFE9EE; font-family:'BloggerSans-Bold'; font-size:8.9459px;">99</text>
			</g>
			<g>
				<path style="fill:#F2E399;" d="M289.596,142.779h-39.203c-2.107,0-3.816,1.708-3.816,3.816v28.848
					c0,2.107,1.708,3.816,3.816,3.816h39.203c2.107,0,3.816-1.708,3.816-3.816v-28.848
					C293.412,144.487,291.703,142.779,289.596,142.779z"/>
				<path style="fill:#7D3BBF;" d="M289.596,142.779h-39.203c-2.107,0-3.816,1.708-3.816,3.816v4.464h46.834v-4.464
					C293.412,144.487,291.703,142.779,289.596,142.779z"/>
				<g>
					<path style="fill:#D971A1;" d="M252.536,144.965c-0.414,0-0.75-0.336-0.75-0.75v-2.871c0-0.414,0.336-0.75,0.75-0.75
						s0.75,0.336,0.75,0.75v2.871C253.286,144.629,252.95,144.965,252.536,144.965z"/>
				</g>
				<g>
					<path style="fill:#D971A1;" d="M259.948,144.965c-0.414,0-0.75-0.336-0.75-0.75v-2.871c0-0.414,0.336-0.75,0.75-0.75
						c0.414,0,0.75,0.336,0.75,0.75v2.871C260.698,144.629,260.362,144.965,259.948,144.965z"/>
				</g>
				<g>
					<path style="fill:#D971A1;" d="M267.36,144.965c-0.414,0-0.75-0.336-0.75-0.75v-2.871c0-0.414,0.336-0.75,0.75-0.75
						c0.414,0,0.75,0.336,0.75,0.75v2.871C268.11,144.629,267.775,144.965,267.36,144.965z"/>
				</g>
				<g>
					<path style="fill:#D971A1;" d="M274.772,144.965c-0.414,0-0.75-0.336-0.75-0.75v-2.871c0-0.414,0.336-0.75,0.75-0.75
						c0.414,0,0.75,0.336,0.75,0.75v2.871C275.522,144.629,275.187,144.965,274.772,144.965z"/>
				</g>
				<g>
					<path style="fill:#D971A1;" d="M282.184,144.965c-0.414,0-0.75-0.336-0.75-0.75v-2.871c0-0.414,0.336-0.75,0.75-0.75
						c0.414,0,0.75,0.336,0.75,0.75v2.871C282.934,144.629,282.598,144.965,282.184,144.965z"/>
				</g>
				<g>
					<path style="fill:#D971A1;" d="M289.596,144.965c-0.414,0-0.75-0.336-0.75-0.75v-2.871c0-0.414,0.336-0.75,0.75-0.75
						c0.414,0,0.75,0.336,0.75,0.75v2.871C290.346,144.629,290.01,144.965,289.596,144.965z"/>
				</g>
				<g>
					<path style="fill:#D971A1;" d="M267.549,173.955h-7.928c-1.012,0-1.712-0.699-1.712-1.591c0-0.338,0.024-0.771,0.194-1.132
						c0.964-2.121,2.723-3.663,4.433-5.206c1.326-1.205,3.254-2.578,3.254-4.361c0-1.229-0.772-2.193-2.266-2.193
						c-0.819,0-1.445,0.145-2.024,0.385c-0.531,0.217-1.012,0.651-1.712,0.651c-0.819,0-1.639-0.578-1.639-1.47
						c0-1.759,3.446-2.506,5.399-2.506c3.519,0,5.567,2.169,5.567,4.892c0,2.049-0.795,3.398-1.904,4.555
						c-1.615,1.687-3.735,3.181-5.037,4.964h5.375c0.94,0,1.663,0.65,1.663,1.494C269.213,173.28,268.489,173.955,267.549,173.955z"
						/>
					<path style="fill:#D971A1;" d="M277.887,163.569c2.506,0.458,4.193,2.217,4.193,4.82c0,2.603-1.807,5.76-6,5.76
						c-1.134,0-4.989-0.313-4.989-2.313c0-0.795,0.698-1.495,1.591-1.495c1.011,0,1.638,0.892,3.277,0.892
						c2.096,0,2.771-1.446,2.771-2.699c0-1.591-1.061-2.217-2.747-2.217c-0.627,0-0.627,0.265-1.229,0.265
						c-0.867,0-1.566-0.699-1.566-1.591c0-0.241,0.048-0.434,0.168-0.578l3.592-4.362h-3.881c-0.94,0-1.662-0.674-1.662-1.518
						c0-0.867,0.722-1.591,1.662-1.591h6.725c1.035,0,1.759,0.699,1.759,1.639c0,0.409-0.145,0.795-0.386,1.084L277.887,163.569z"/>
				</g>
			</g>
			<g>
				<path style="fill:#F2E399;" d="M156.206,165.907c-0.094-0.711-0.748-1.212-1.46-1.117l-6.345,0.843
					c-0.711,0.094-1.212,0.748-1.117,1.46s0.748,1.212,1.46,1.117l6.345-0.843C155.801,167.272,156.301,166.619,156.206,165.907z"/>
				<path style="fill:#F2E399;" d="M165.588,153.653c0.711-0.094,1.212-0.748,1.117-1.46l-0.843-6.345
					c-0.094-0.711-0.748-1.212-1.46-1.117c-0.711,0.094-1.212,0.748-1.117,1.46l0.843,6.345
					C164.223,153.247,164.876,153.748,165.588,153.653z"/>
				<path style="fill:#F2E399;" d="M158.117,156.016l-5.083-3.891c-0.57-0.436-1.385-0.328-1.822,0.242
					c-0.218,0.285-0.3,0.632-0.257,0.961c0.044,0.33,0.213,0.643,0.499,0.861l5.083,3.891c0.57,0.436,1.385,0.328,1.822-0.242
					C158.796,157.267,158.688,156.452,158.117,156.016z"/>
				<path style="fill:#F2E399;" d="M179.37,150.481c0.436-0.57,0.328-1.385-0.242-1.822c-0.57-0.436-1.385-0.328-1.822,0.242
					l-3.891,5.083c-0.218,0.285-0.3,0.631-0.257,0.961c0.044,0.33,0.213,0.643,0.499,0.861c0.57,0.436,1.385,0.328,1.822-0.242
					L179.37,150.481z"/>
			</g>
			<g>
				<path style="fill:#D971A1;" d="M345.955,196.713H321.77c-2.135,0-3.871,1.736-3.871,3.871v20.863
					c0,0.678,0.377,1.287,0.984,1.59c0.253,0.126,0.525,0.188,0.794,0.188c0.378,0,0.751-0.121,1.067-0.359l6.657-5.008h18.553
					c2.135,0,3.871-1.737,3.871-3.871v-13.405C349.826,198.45,348.09,196.713,345.955,196.713z M348.97,213.989
					c0,1.663-1.353,3.015-3.015,3.015h-18.696c-0.093,0-0.183,0.03-0.257,0.086l-6.771,5.094c-0.284,0.215-0.646,0.248-0.965,0.088
					c-0.32-0.159-0.51-0.467-0.51-0.825v-20.863c0-1.663,1.353-3.015,3.015-3.015h24.185c1.663,0,3.015,1.353,3.015,3.015V213.989z"
					/>
				<path style="fill:#D971A1;" d="M324.478,204.173c-1.516,0-2.745,1.229-2.745,2.744c0,1.516,1.229,2.745,2.745,2.745
					c1.516,0,2.745-1.229,2.745-2.745C327.223,205.401,325.994,204.173,324.478,204.173z"/>
				<circle style="fill:#D971A1;" cx="333.747" cy="206.917" r="2.745"/>
				<circle style="fill:#D971A1;" cx="343.016" cy="206.917" r="2.744"/>
			</g>
			<g>
				<path style="fill:#F9B2C1;" d="M196.927,155.085v13.405c0,2.134,1.736,3.871,3.871,3.871h18.553l6.657,5.008
					c0.316,0.238,0.689,0.359,1.067,0.359c0.27,0,0.541-0.062,0.794-0.188c0.607-0.303,0.984-0.912,0.984-1.59v-20.863
					c0-2.134-1.736-3.871-3.871-3.871h-24.185C198.663,151.214,196.927,152.951,196.927,155.085z M197.782,155.085
					c0-1.663,1.353-3.015,3.015-3.015h24.185c1.663,0,3.015,1.353,3.015,3.015v20.863c0,0.357-0.191,0.665-0.51,0.825
					c-0.319,0.16-0.681,0.127-0.965-0.088l-6.771-5.094c-0.074-0.056-0.165-0.086-0.257-0.086h-18.696
					c-1.663,0-3.015-1.353-3.015-3.015V155.085z"/>
				<circle style="fill:#F9B2C1;" cx="222.274" cy="161.418" r="2.744"/>
				<path style="fill:#F9B2C1;" d="M213.005,158.673c1.516,0,2.745,1.229,2.745,2.745c0,1.516-1.229,2.744-2.745,2.744
					c-1.516,0-2.744-1.229-2.744-2.744C210.261,159.902,211.49,158.673,213.005,158.673z"/>
				<circle style="fill:#F9B2C1;" cx="203.737" cy="161.418" r="2.744"/>
			</g>
			<g>
				<path style="fill:#F9B2C1;" d="M319.151,176.928c-2.068,0-3.698-1.587-3.698-3.433c0-1.849,1.63-3.39,3.698-3.39
					c1.982,0,3.651,1.541,3.651,3.39C322.802,175.34,321.132,176.928,319.151,176.928z M315.983,147.968
					c0-1.494,1.362-2.859,3.078-2.859c1.673,0,3.082,1.365,3.082,2.859l-0.441,18.529c-0.043,1.319-1.276,2.465-2.641,2.465
					c-1.494,0-2.637-1.1-2.637-2.465L315.983,147.968z"/>
			</g>
		</g>
		<g>
			<g>
				<path style="fill:#FFE9EE;" d="M100.835,292.06h37.087v10.135h-37.087c-2.799,0-5.067-2.269-5.067-5.067l0,0
					C95.768,294.328,98.037,292.06,100.835,292.06z"/>
				<g>
					<path style="fill:#F2E399;" d="M138.248,303.342H100.86c-3.492,0-6.332-2.84-6.332-6.331s2.84-6.332,6.332-6.332h37.388
						c0.552,0,1,0.447,1,1c0,0.553-0.448,1-1,1H100.86c-2.389,0-4.332,1.943-4.332,4.332c0,2.388,1.943,4.331,4.332,4.331h37.388
						c0.552,0,1,0.447,1,1C139.248,302.895,138.801,303.342,138.248,303.342z"/>
				</g>
			</g>
			<g>
				<path style="fill:#FFE9EE;" d="M91.045,279.397h37.087v10.135H91.045c-2.799,0-5.067-2.269-5.067-5.067v0
					C85.978,281.665,88.247,279.397,91.045,279.397z"/>
				<g>
					<path style="fill:#7D3BBF;" d="M128.458,290.679H91.07c-3.492,0-6.332-2.84-6.332-6.331c0-3.491,2.84-6.332,6.332-6.332h37.388
						c0.552,0,1,0.447,1,1c0,0.553-0.448,1-1,1H91.07c-2.389,0-4.332,1.943-4.332,4.332c0,2.388,1.943,4.331,4.332,4.331h37.388
						c0.552,0,1,0.447,1,1C129.458,290.232,129.011,290.679,128.458,290.679z"/>
				</g>
			</g>
			<g>
				<path style="fill:#FFE9EE;" d="M106.818,266.734h37.086v10.135h-37.086c-2.799,0-5.067-2.269-5.067-5.067l0,0
					C101.751,269.002,104.02,266.734,106.818,266.734z"/>
				<g>
					<path style="fill:#D971A1;" d="M144.231,278.016h-37.388c-3.492,0-6.332-2.84-6.332-6.331s2.84-6.332,6.332-6.332h37.388
						c0.552,0,1,0.447,1,1s-0.448,1-1,1h-37.388c-2.389,0-4.332,1.943-4.332,4.332c0,2.388,1.943,4.331,4.332,4.331h37.388
						c0.552,0,1,0.447,1,1C145.231,277.569,144.784,278.016,144.231,278.016z"/>
				</g>
			</g>
		</g>
		<g>
			<g>
				<path style="fill:#F2E399;" d="M374.181,280.376c-0.886,0.671-1.676,4.75-3.056,5.075c0.14-0.482,0.28-0.963,0.447-1.44
					c1.065-3.037,2.432-6.498,1.47-9.742c-0.452-1.523-1.785-3.206-3.471-3.328c-1.539-0.112-2.814,1.043-3.586,2.262
					c-0.58,0.915-0.946,1.95-1.141,3.012c-0.389,2.126-0.132,4.351,0.44,6.42c0.128,0.463,0.247,0.941,0.364,1.424
					c-1.089-0.432-1.437-1.831-1.652-2.856c-0.282-1.342-0.395-2.722-0.766-4.045c-0.164-0.587-0.519-1.33-1.178-1.444
					c-0.702-0.121-1.229,0.487-1.496,1.063c-0.65,1.399-0.335,2.738,0.017,4.166c0.284,1.152,0.385,2.365,0.873,3.459
					c0.879,1.971,2.859,2.612,4.891,2.567c0.433,1.787,0.931,3.559,1.7,5.104c0.065,0.131,0.229,0.06,0.249-0.059
					c0.421,0.225,1.058,0.09,1.228-0.468c0.39-1.273,0.692-2.561,1.009-3.846c1.202,0.349,2.599,0.376,3.559-0.415
					c1.274-1.05,1.599-3.471,1.582-5.02C375.655,281.594,375.347,279.493,374.181,280.376z"/>
				<path style="fill:#EFD97B;" d="M368.148,291.601c0.157,0.531,0.885,0.294,0.814-0.221c-0.395-2.842-1.157-5.586-1.366-8.465
					c-0.166-2.29-0.767-11.294,2.718-11.597c0.024-0.002,0.034-0.04,0.006-0.046C363.927,269.983,367.159,288.254,368.148,291.601z"
					/>
				<path style="fill:#EFD97B;" d="M370.411,271.199c-0.011-0.024-0.049-0.007-0.043,0.018c1.49,5.964-1.195,12.66-1.224,18.765
					c-0.001,0.214,0.305,0.202,0.328,0C370.171,283.973,373.126,277.026,370.411,271.199z"/>
				<path style="fill:#EFD97B;" d="M374.274,282.276c-0.129,1.101-0.767,2.236-1.43,3.104c-0.337,0.442-0.596,0.699-1.166,0.798
					c-0.28,0.049-0.456,0.103-0.677,0.281c-0.116,0.093-0.08,0.267,0,0.365c0.671,0.819,1.601-0.286,2.012-0.825
					c0.865-1.132,0.941-2.405,1.359-3.709C374.393,282.223,374.283,282.201,374.274,282.276z"/>
				<path style="fill:#EFD97B;" d="M365.927,285.709c-2.086,0.143-2.518-1.509-2.928-3.235c-0.33-1.39-0.787-2.751-1.204-4.118
					c-0.015-0.048-0.098-0.042-0.092,0.012c0.243,2.081,0.357,4.167,1.234,6.106c0.643,1.42,1.471,1.62,2.989,1.516
					C366.106,285.978,366.108,285.696,365.927,285.709z"/>
			</g>
			<polygon style="fill:#D971A1;" points="377.349,289.928 359.599,289.928 361.485,303.342 375.463,303.342 			"/>
			<path style="fill:#7D3BBF;" d="M377.353,289.928h-17.758c-0.335,0-0.607,0.272-0.607,0.607v2.317
				c0,0.335,0.272,0.607,0.607,0.607h17.758c0.335,0,0.607-0.272,0.607-0.607v-2.317C377.96,290.2,377.688,289.928,377.353,289.928z
				"/>
		</g>
	</g>
	<g>
		<g>
			<g>
				<path style="fill:#D971A1;" d="M166.021,433.556l-34.036-109.304c-1.334-4.285-5.697-6.613-9.745-5.201
					c-4.048,1.412-6.248,6.031-4.914,10.315c0.079,0.254,0.173,0.511,0.273,0.75l44.02,105.234c0.528,1.262,1.923,1.833,3.115,1.274
					C165.852,436.1,166.392,434.76,166.021,433.556z"/>
				<path style="fill:#F9B2C1;" d="M83.287,433.556l34.036-109.304c1.334-4.285,5.697-6.613,9.745-5.201
					c4.048,1.412,6.248,6.031,4.914,10.315c-0.079,0.254-0.173,0.511-0.273,0.75L87.689,435.35
					c-0.528,1.262-1.923,1.833-3.115,1.274C83.456,436.1,82.917,434.76,83.287,433.556z"/>
			</g>
			<g>
				<path style="fill:#D971A1;" d="M416.713,433.556l-34.036-109.304c-1.334-4.285-5.697-6.613-9.745-5.201
					c-4.048,1.412-6.248,6.031-4.914,10.315c0.079,0.254,0.174,0.511,0.273,0.75l44.02,105.234c0.528,1.262,1.923,1.833,3.115,1.274
					C416.544,436.1,417.083,434.76,416.713,433.556z"/>
				<path style="fill:#F9B2C1;" d="M333.979,433.556l34.036-109.304c1.334-4.285,5.697-6.613,9.745-5.201
					c4.048,1.412,6.248,6.031,4.914,10.315c-0.079,0.254-0.173,0.511-0.273,0.75l-44.02,105.234
					c-0.528,1.262-1.923,1.833-3.116,1.274C334.148,436.1,333.608,434.76,333.979,433.556z"/>
			</g>
		</g>
		<path style="fill:#7D3BBF;" d="M421.493,303.342H78.507c-10.004,0-18.114,8.11-18.114,18.114l0,0
			c0,10.004,8.11,18.114,18.114,18.114h92.678c4.172,0,7.905-2.59,9.366-6.497l5.798-15.502c1.461-3.907,5.195-6.497,9.366-6.497
			h108.568c4.172,0,7.905,2.59,9.366,6.497l5.798,15.502c1.461,3.907,5.195,6.497,9.366,6.497h92.678
			c10.004,0,18.114-8.11,18.114-18.114l0,0C439.606,311.452,431.497,303.342,421.493,303.342z"/>
		<g>
			<path style="fill:#7438BA;" d="M181.327,310.566H78.498c-6.634,0-12.032,5.489-12.032,12.236c0,6.748,5.398,12.237,12.032,12.237
				h90.295c3.119,0,5.968-1.987,7.09-4.945l6.707-17.671c0.161-0.424,0.103-0.9-0.154-1.272
				C182.184,310.785,181.769,310.566,181.327,310.566z M181.655,312.069l-6.706,17.67c-0.976,2.572-3.45,4.301-6.156,4.301H78.498
				c-6.083,0-11.032-5.041-11.032-11.237c0-6.195,4.949-11.236,11.032-11.236h102.828c0.158,0,0.247,0.096,0.287,0.153
				C181.647,311.768,181.719,311.9,181.655,312.069z"/>
			<path style="fill:#7438BA;" d="M421.501,310.566H318.673c-0.441,0-0.856,0.219-1.108,0.584c-0.258,0.373-0.315,0.85-0.154,1.274
				l6.705,17.67c1.123,2.958,3.973,4.945,7.092,4.945h90.294c6.635,0,12.032-5.489,12.032-12.237
				C433.533,316.056,428.136,310.566,421.501,310.566z M421.501,334.04h-90.294c-2.706,0-5.18-1.728-6.156-4.301l-6.705-17.669
				c-0.064-0.17,0.008-0.303,0.041-0.352c0.04-0.057,0.129-0.152,0.286-0.152h102.828c6.083,0,11.032,5.041,11.032,11.236
				C432.533,328.999,427.584,334.04,421.501,334.04z"/>
		</g>
		<g>
			<path style="fill:#8746CC;" d="M181.327,311.066H78.499c-6.369,0-11.532,5.255-11.532,11.737l0,0
				c0,6.482,5.163,11.737,11.532,11.737h90.295c2.934,0,5.566-1.837,6.623-4.623l6.706-17.67
				C182.338,311.678,181.926,311.066,181.327,311.066z"/>
			<path style="fill:#8746CC;" d="M318.673,311.066h102.828c6.369,0,11.532,5.255,11.532,11.737l0,0
				c0,6.482-5.163,11.737-11.532,11.737h-90.295c-2.934,0-5.566-1.837-6.623-4.623l-6.706-17.67
				C317.662,311.678,318.074,311.066,318.673,311.066z"/>
		</g>
		<g>
			<path style="fill:#23123F;" d="M127.363,316.049h-13.436c-0.793,0-1.436,0.643-1.436,1.436l0,0c0,0.793,0.643,1.436,1.436,1.436
				h13.436c0.793,0,1.436-0.643,1.436-1.436l0,0C128.799,316.692,128.156,316.049,127.363,316.049z"/>
			<path style="fill:#23123F;" d="M386.073,316.049h-13.436c-0.793,0-1.436,0.643-1.436,1.436l0,0c0,0.793,0.643,1.436,1.436,1.436
				h13.436c0.793,0,1.436-0.643,1.436-1.436l0,0C387.509,316.692,386.866,316.049,386.073,316.049z"/>
		</g>
	</g>
	<g>
		<path style="fill:#180D2D;" d="M258.788,369.994h-17.577c-3.143,0-5.691,2.548-5.691,5.691v4.107c0,3.143,2.548,5.691,5.691,5.691
			h17.577c3.143,0,5.691-2.548,5.691-5.691v-4.107C264.479,372.542,261.932,369.994,258.788,369.994z"/>
		<g>
			<path style="fill:#180D2D;" d="M206.301,372.964c-1.73,0-3.227-1.489-3.44-3.518l0,0c-0.469-4.389-3.122-16.51-9.678-19.854
				c-1.752-0.895-2.544-3.257-1.768-5.277c0.776-2.019,2.825-2.929,4.577-2.039c11.519,5.879,13.672,25.385,13.758,26.213
				c0.228,2.193-1.13,4.185-3.032,4.447C206.578,372.955,206.439,372.964,206.301,372.964z"/>
		</g>
		<g>
			<path style="fill:#6326AA;" d="M298.907,372.2c0-7.989-21.776-14.466-48.638-14.466c-26.862,0-48.638,6.477-48.638,14.466
				C201.631,380.189,298.907,380.189,298.907,372.2z"/>
			<path style="fill:#4E2096;" d="M295.729,367.055c0.686,0.988,1.056,2.013,1.056,3.065c0,7.989-93.032,7.989-93.032,0
				c0-1.052,0.37-2.077,1.057-3.065c-2.047,1.599-3.178,3.332-3.178,5.145c0,7.989,97.276,7.989,97.276,0
				C298.907,370.387,297.776,368.654,295.729,367.055z"/>
		</g>
		<g>
			<path style="fill:#6326AA;" d="M193.214,351.107c6.215-3.534,5.135-20.698-2.411-38.336
				c-7.547-17.638-18.703-29.072-24.918-25.537C159.67,290.768,186.999,354.642,193.214,351.107z"/>
			<path style="fill:#4E2096;" d="M194.124,349.112c-5.432,3.089-31.744-58.408-26.312-61.497c1.222-0.695,2.691-0.658,4.315,0.002
				c-2.345-1.186-4.49-1.38-6.242-0.383c-6.215,3.534,21.114,67.408,27.329,63.874c1.752-0.996,2.923-3.076,3.535-5.943
				C196.214,347.051,195.345,348.418,194.124,349.112z"/>
		</g>
		<rect x="244.861" y="385.483" style="fill:#180D2D;" width="10.279" height="33.81"/>
		<g>
			<path style="fill:#180D2D;" d="M293.169,440.339c-1.933,0-3.5-1.567-3.5-3.5v-4.951c0-5.015-4.079-9.095-9.094-9.095h-61.15
				c-5.014,0-9.094,4.08-9.094,9.095v4.951c0,1.933-1.567,3.5-3.5,3.5c-1.933,0-3.5-1.567-3.5-3.5v-4.951
				c0-8.875,7.22-16.095,16.094-16.095h61.15c8.874,0,16.094,7.22,16.094,16.095v4.951
				C296.669,438.771,295.102,440.339,293.169,440.339z"/>
		</g>
		<g>
			<path style="fill:#180D2D;" d="M280.457,440.339c-1.933,0-3.5-1.567-3.5-3.5v-4.056c0-3.759-2.416-6.816-5.386-6.816h-43.143
				c-2.969,0-5.385,3.058-5.385,6.816v4.056c0,1.933-1.567,3.5-3.5,3.5c-1.933,0-3.5-1.567-3.5-3.5v-4.056
				c0-7.618,5.556-13.816,12.385-13.816h43.143c6.829,0,12.386,6.198,12.386,13.816v4.056
				C283.957,438.771,282.39,440.339,280.457,440.339z"/>
		</g>
		<g>
			<circle style="fill:#180D2D;" cx="204.068" cy="436.404" r="6.872"/>
			<circle style="fill:#23123F;" cx="204.068" cy="436.404" r="2.758"/>
			<circle style="fill:#180D2D;" cx="221.54" cy="437.919" r="6.872"/>
			<circle style="fill:#23123F;" cx="221.54" cy="437.919" r="2.758"/>
			<circle style="fill:#180D2D;" cx="295.932" cy="436.404" r="6.872"/>
			<circle style="fill:#23123F;" cx="295.932" cy="436.404" r="2.758"/>
			<circle style="fill:#180D2D;" cx="278.46" cy="437.919" r="6.872"/>
			<circle style="fill:#23123F;" cx="278.46" cy="437.919" r="2.758"/>
		</g>
	</g>
	<g>
		<path style="fill:#00FF00;" d="M184.487,268.24c-0.064,0-0.064,0.1,0,0.1C184.551,268.34,184.552,268.24,184.487,268.24z"/>
		<polygon style="fill:#C95D93;" points="382.136,423.377 388.855,418.803 344.637,380.568 		"/>
		<path style="fill:#180D2D;" d="M418.337,411.054c-0.039-0.417-0.131-0.828-0.285-1.22c-0.519-1.328-1.871-1.726-3.26-1.567
			c-3.669,0.42-7.04,2.014-10.436,3.305c-3.357,1.276-6.914,2.462-10.55,2.644c-1.777,0.089-3.368-0.203-4.89-1.056
			c-1.339-0.751-3.18-1.486-4.753-1.174c-1.181,0.235-1.807,1.041-2.442,1.962c-0.313,0.453-0.702,0.855-1.091,1.256
			c-1.844,0.835-3.571,1.959-5.285,2.987c-0.119,0.071-0.247,0.155-0.282,0.285c-0.03,0.111,0.017,0.225,0.062,0.331
			c1.429,3.311,3.036,6.66,5.712,9.151c2.676,2.491,6.667,3.971,10.196,2.839c3.551-1.14,5.753-4.501,8.806-6.589
			c2.236-1.529,4.897-2.35,7.501-3.176c2.605-0.826,5.254-1.708,7.417-3.333c1.417-1.064,2.676-2.642,3.264-4.282
			C418.29,412.667,418.411,411.849,418.337,411.054z"/>
		<path style="fill:#D971A1;" d="M224.206,352.436l32.582-23.556l63.728,24.152l68.34,78.015l-5.791,4.788
			c0,0-60.966-34.064-88.579-65.842C294.485,369.994,234.117,374.83,224.206,352.436z"/>
		<path style="fill:#C95D93;" d="M297.021,364.366c0,0-51.386,1.827-68.12-15.324l-4.696,3.395
			c9.911,22.394,70.279,17.558,70.279,17.558c27.614,31.778,88.579,65.842,88.579,65.842l0.578-0.478
			C372.126,428.028,321.082,394.671,297.021,364.366z"/>
		<path style="fill:#EFA3B5;" d="M253.963,275.966c-1.226-0.279-2.585-0.218-3.836-0.308c-1.004-0.072-2.382-0.418-3.366-0.005
			c-0.975,0.408-1.68,1.593-2.031,2.755c-4.249,1.425-8.531,2.753-12.852,3.929c-4.438,1.207-8.985,1.964-13.392,3.301
			c-4.212,1.278-8.338,3.105-11.604,6.144c-0.056-0.269-0.114-0.54-0.171-0.81c0.517-2.512-10.458-18.439-14.559-15.808
			c-0.551,0.121-1.083,0.286-1.571,0.534c-1.19,0.606-2.245,2.289-1.304,3.547c0.16,0.214,0.368,0.387,0.524,0.604
			c0.467,0.653,0.3,2.136,0.4,2.923c0.146,1.158,0.333,2.31,0.559,3.454c0.44,2.234,1.028,4.439,1.747,6.598
			c1.015,3.048,2.115,6.177,3.883,8.874c1.771,2.703,4.307,5.078,7.718,5.081c2.06,0.002,4.022-0.829,5.919-1.644
			c5.353-2.302,10.708-4.608,15.949-7.161c4.337-2.113,8.411-4.726,12.717-6.9c1.264-0.638,2.557-1.273,3.844-1.927
			c1.127-0.289,2.068-0.33,3.217-0.256c0.86,0.055,1.503,0.052,2.328-0.296c1.469-0.619,4.084-2.969,2.962-4.587
			c0.049-0.017,0.1-0.028,0.148-0.047c0.419-0.157,0.846-0.397,1.062-0.807c0.108-0.206,0.158-0.397,0.139-0.63
			c-0.013-0.16-0.109-0.316-0.138-0.474c0.075-0.039,0.158-0.071,0.232-0.11c0.892-0.479,2.324-1.599,1.584-2.589
			c0.289-0.19,0.547-0.404,0.757-0.65C255.769,277.591,255.395,276.293,253.963,275.966z"/>
		<path style="fill:#F9B2C1;" d="M212.161,254.15c0.057-0.072,0.724-0.202,1.597-0.343c2.234-0.363,3.522-2.743,2.585-4.803
			c-1.905-4.192-4.586-10.213-4.847-11.455c-0.354-1.688,0.296-3.414,0.355-5.104c0.073-2.055-0.13-4.154-0.821-6.099
			c-0.137-0.387-0.332-0.808-0.716-0.951c-0.181-0.068-0.389-0.066-0.55-0.173c-0.127-0.085-0.204-0.227-0.275-0.362
			c-0.79-1.498-2.063-3.697-4.095-3.17c-3.718,0.965-7.262,2.938-10.782,4.444c-3.379,1.446-6.862,2.385-10.3,3.599
			c-2.199,0.776-4.365,1.752-6.221,3.183c-1.935,1.491-3.167,3.559-4.085,5.795c-0.346,0.842-0.638,1.702-0.94,2.56
			c-0.247,0.701-0.732,1.392-0.726,2.153c0.006,0.692,0.276,1.439-0.208,2.042c-0.346,0.431-1.327,0.347-1.866,0.632
			c-0.678,0.358-1.251,0.928-1.679,1.559c-1.443,2.126-1.578,5.073-0.32,7.313c0.717,1.277,1.891,2.343,3.349,2.641
			c0.816,0.166,1.672,0.029,2.432-0.311c0.799-0.357,0.76-0.233,1.291,0.547c0.637,0.938,1.324,1.878,1.878,2.869
			c1.298,2.321,2.465,4.792,3.335,7.308c0.377,1.09,0.185,2.269,0.105,3.39c-0.143,1.999-0.314,4.244-0.004,6.232
			c0.15,0.96,0.618,1.944,1.488,2.375c1.393,0.689,3.86,0.135,5.374,0.027c1.427-0.102,2.887-0.099,4.312-0.254
			c0.005,0.015,0.008,0.03,0.014,0.045c0.286,0.762,1.596,0.735,1.531-0.207c-0.006-0.08-0.008-0.159-0.014-0.239
			c0.348-0.37,0.29-1.02-0.079-1.396c-0.12-2.065-0.211-4.128-0.277-6.193c0.022-0.35,0.029-0.699,0.034-1.049
			c0.689-0.105,10.413,1.41,15.225-4.562C212.094,261.434,212.161,254.15,212.161,254.15z"/>
		<path style="fill:#EFA3B5;" d="M180.311,257.967c-0.016-0.04-0.032-0.079-0.048-0.119c-1.054-2.661-1.564-5.793-1.208-8.644
			c0.385-3.083,2.554-5.144,4.317-7.502c0.321-0.429,3.08-5.28,2.418-5.547c1.689,0.682,3.818,0.736,5.828,0.442
			c2.84-0.416,5.197-1.669,7.649-3.101c4.149-2.423,7.88-3.886,12.525-3.333c-0.101-1.3-0.326-2.591-0.762-3.818
			c-0.137-0.387-0.332-0.808-0.716-0.951c-0.181-0.068-0.389-0.066-0.55-0.173c-0.127-0.085-0.204-0.227-0.275-0.362
			c-0.79-1.498-2.062-3.697-4.095-3.169c-3.719,0.965-7.262,2.938-10.782,4.444c-3.379,1.446-6.862,2.385-10.3,3.599
			c-2.199,0.776-4.365,1.752-6.221,3.183c-1.935,1.491-3.167,3.559-4.085,5.795c-0.346,0.842-0.638,1.702-0.94,2.56
			c-0.247,0.701-0.732,1.392-0.726,2.153c0.006,0.692,0.276,1.439-0.208,2.042c-0.346,0.431-1.327,0.347-1.866,0.632
			c-0.678,0.358-1.251,0.928-1.679,1.559c-1.443,2.126-1.578,5.073-0.32,7.313c0.717,1.277,1.891,2.344,3.349,2.641
			c0.816,0.166,1.672,0.029,2.432-0.311c0.799-0.357,0.76-0.233,1.29,0.547c0.637,0.938,1.324,1.878,1.878,2.869
			c1.298,2.321,2.465,4.792,3.335,7.308c0.377,1.09,0.185,2.269,0.105,3.39c-0.143,1.999-0.314,4.244-0.004,6.232
			c0.15,0.96,0.618,1.944,1.488,2.375c1.393,0.689,3.861,0.135,5.374,0.027c1.427-0.102,2.887-0.099,4.312-0.254
			c0.005,0.015,0.008,0.03,0.014,0.045c0.286,0.762,1.596,0.735,1.53-0.207c-0.005-0.08-0.008-0.159-0.014-0.239
			c0.348-0.37,0.29-1.02-0.079-1.396c-0.12-2.065-0.211-4.128-0.277-6.193c0.022-0.35,0.029-0.699,0.034-1.049
			c0.689-0.105,10.413,1.41,15.225-4.562c0.586-0.727,1.075-1.516,1.498-2.326c-0.491,0.937-2.35,2.668-3.271,3.066
			c-1.404,0.607-3.19,1.071-4.693,1.356c-4.828,0.918-10.24,0.39-14.473-2.16C184.21,264.258,181.692,261.374,180.311,257.967z"/>
		<path style="fill:#F2E399;" d="M255.652,322.637c-1.937-1.506-4.563-2.433-7.255-3.127c-2.3-1.224-4.857-2.379-7.399-3.461
			c-8.308-3.538-19.293-23.059-26.262-31.125c-6.969-8.067-21.421-16.008-32.056-10.55c-10.634,5.458,0.414,45.417,16.475,57.058
			c5.863,4.25,10.772,8.188,14.657,11.486c1.277,1.872,2.53,3.744,3.904,5.356c2.296,2.694,4.691,5.767,8.503,5.954
			c3.886,0.19,8.113-2.317,11.407-4.055c4.462-2.354,8.607-4.84,12.045-8.587C253.411,337.508,262.242,327.761,255.652,322.637z"/>
		<path style="fill:#EFD97B;" d="M241.352,346.505c-3.294,1.738-7.521,4.245-11.407,4.055c-3.812-0.187-6.206-3.26-8.503-5.954
			c-1.374-1.612-2.627-3.484-3.904-5.356c-3.885-3.298-8.794-7.237-14.657-11.486c-14.175-10.273-24.434-42.588-19.341-53.793
			c-0.289,0.127-0.576,0.258-0.859,0.403c-10.634,5.458,0.414,45.417,16.475,57.058c5.863,4.25,10.772,8.188,14.657,11.486
			c1.277,1.872,2.53,3.744,3.904,5.356c2.296,2.694,4.691,5.767,8.503,5.954c3.886,0.19,8.113-2.317,11.407-4.055
			c4.462-2.354,8.607-4.84,12.045-8.587c0.266-0.29,0.56-0.612,0.871-0.956C247.753,342.96,244.64,344.77,241.352,346.505z"/>
		<path style="fill:#180D2D;" d="M419.704,417.607c-0.126-0.401-0.303-0.785-0.536-1.139c-0.788-1.199-2.195-1.324-3.522-0.897
			c-3.505,1.128-6.471,3.348-9.525,5.275c-3.019,1.906-6.253,3.762-9.775,4.65c-1.722,0.434-3.341,0.459-5.011-0.079
			c-1.469-0.474-3.427-0.834-4.901-0.221c-1.107,0.461-1.551,1.372-1.979,2.398c-0.211,0.505-0.508,0.975-0.804,1.443
			c-1.63,1.178-3.085,2.616-4.547,3.957c-0.101,0.093-0.209,0.2-0.216,0.334c-0.006,0.114,0.064,0.217,0.13,0.312
			c2.096,2.963,4.374,5.928,7.518,7.845c3.144,1.916,7.363,2.586,10.582,0.788c3.238-1.81,4.688-5.532,7.238-8.173
			c1.868-1.935,4.301-3.258,6.678-4.576c2.377-1.318,4.785-2.699,6.562-4.713c1.164-1.318,2.066-3.11,2.296-4.831
			C419.997,419.196,419.944,418.372,419.704,417.607z"/>
		<path style="fill:#7D3BBF;" d="M245.026,290.784L245.026,290.784c-0.719-0.382-0.991-1.274-0.609-1.992l12.725-23.943
			c0.382-0.719,1.274-0.991,1.992-0.61l0,0c0.719,0.382,0.991,1.274,0.609,1.992l-12.725,23.943
			C246.636,290.892,245.744,291.165,245.026,290.784z"/>
		<path style="fill:#F9B2C1;" d="M254.177,275.906c-1.255,0.082-2.54,0.528-3.765,0.799c-0.983,0.217-2.402,0.279-3.228,0.955
			c-0.818,0.669-1.156,2.006-1.161,3.22c-3.666,2.578-7.392,5.072-11.198,7.431c-3.91,2.423-8.052,4.445-11.894,6.983
			c-3.673,2.426-7.106,5.354-9.37,9.199c-0.13-0.242-0.263-0.485-0.395-0.728c-0.22-2.555-0.77-5.004-1.82-7.605
			c-0.936-2.318-1.904-4.651-4.014-5.857c-3.819-3.114-9.448-1.229-12.628,2.462c-0.493,0.273-0.957,0.583-1.353,0.96
			c-0.968,0.921-1.499,2.835-0.239,3.772c0.214,0.159,0.464,0.266,0.674,0.43c0.634,0.493,0.897,1.962,1.217,2.688
			c0.471,1.068,0.978,2.119,1.521,3.151c1.059,2.016,2.251,3.961,3.556,5.826c1.842,2.632,3.789,5.317,6.252,7.398
			c2.468,2.085,5.577,3.639,8.847,2.669c1.975-0.586,3.619-1.941,5.204-3.264c4.474-3.733,8.949-7.47,13.244-11.413
			c3.554-3.262,6.714-6.929,10.221-10.24c1.03-0.972,2.087-1.949,3.134-2.943c0.998-0.599,1.888-0.906,3.01-1.163
			c0.84-0.192,1.455-0.378,2.147-0.947c1.231-1.012,3.068-4.01,1.53-5.242c0.042-0.03,0.088-0.056,0.129-0.087
			c0.357-0.27,0.698-0.622,0.788-1.076c0.045-0.228,0.038-0.426-0.047-0.644c-0.058-0.15-0.195-0.272-0.268-0.415
			c0.061-0.058,0.131-0.113,0.191-0.172c0.719-0.713,1.772-2.195,0.779-2.933c0.222-0.264,0.409-0.543,0.54-0.839
			C256.372,276.949,255.643,275.811,254.177,275.906z"/>
		<path style="fill:#EFD97B;" d="M212.795,293.172c-0.63-0.862-1.345-1.773-2.118-2.649l-3.787-6.56
			c-2.972-5.148-9.556-6.912-14.704-3.94h0c-5.148,2.972-6.912,9.556-3.94,14.704l5.878,10.18c0.068,0.326,0.188,0.612,0.572,1
			c2.984,3.019,7.265-2.696,9.473-3.812c2.518-1.274,8.794-2.343,9.809-5.534C214.406,295.216,213.535,294.183,212.795,293.172z"/>
		<path style="fill:#6326AA;" d="M216.362,206.035c-7.292-2.948-13.227,1.578-17.868,7c-3.281,1.681-5.761,0.754-9.39,0.142
			c-2.832-0.477-5.334-0.186-7.803,1.316c-3.738,2.273-5.223,6.354-5.093,10.47c-3.887,0.497-7.274,2.387-9.92,5.791
			c-2.538,3.265-1.764,8.158-0.055,12.144c0.534,1.666,1.302,3.13,2.233,4.001c0.444,0.416,0.955,0.28,1.469,0.106
			c0.657-0.223,1.243-0.367,1.938-0.17c1.018,0.29,1.683,1.103,2.147,2.012c0.25,0.49,0.736,2.643,1.251,2.774
			c0.112,0.029,0.231,0.01,0.347,0.015c0.657,0.029,1.051,0.034,1.212-0.73c0.367-1.737-0.03-3.501,0.511-5.234
			c0.899-2.879,2.339-3.214,4.004-5.118c1.105-1.263,1.886-2.669,2.224-4.325c0.217-1.062,0.214-2.071,0.059-3.031
			c3.801,2.033,9.489,1.102,13.353-0.93c2.863-1.506,5.43-3.436,8.815-3.586c3.202-0.141,5.855,1.361,8.908,1.819
			c3.723,0.558,6.888-1.591,8.659-4.809C227.379,218.399,223.879,209.074,216.362,206.035z"/>
		<path style="fill:#4E2096;" d="M203.835,224.737c-4.215,1.255-7.318,3.932-11.993,4.143c-4.339,0.195-8.429-1.205-12.562-2.29
			c-0.249-0.131-0.495-0.263-0.751-0.391c-0.244-0.122-0.557,0.214-0.313,0.405c0.067,0.052,0.133,0.106,0.199,0.158
			c2.085,2.842,2.577,6.339-0.113,9.286c-0.929,1.017-2.149,1.717-3.076,2.732c-1.071,1.172-1.361,2.54-1.821,4.02
			c-0.719,2.315-2.942,3.804-5.41,3.306c-0.096-0.019-0.176-0.053-0.267-0.077c0.233,0.328,0.477,0.627,0.738,0.871
			c0.444,0.416,0.955,0.28,1.469,0.106c0.658-0.223,1.243-0.367,1.938-0.17c1.018,0.29,1.683,1.103,2.147,2.012
			c0.25,0.49,0.736,2.643,1.251,2.774c0.112,0.029,0.231,0.01,0.347,0.015c0.657,0.03,1.051,0.034,1.212-0.73
			c0.367-1.737-0.03-3.501,0.511-5.234c0.899-2.879,2.339-3.214,4.004-5.118c1.105-1.263,1.886-2.669,2.224-4.325
			c0.217-1.062,0.214-2.071,0.059-3.031c3.801,2.033,9.489,1.102,13.353-0.93c2.863-1.506,5.43-3.436,8.815-3.586
			c3.202-0.141,5.855,1.361,8.908,1.819c3.723,0.558,6.888-1.591,8.659-4.809c0.647-1.175,1.079-2.406,1.35-3.652
			C220.336,233.7,210.218,222.837,203.835,224.737z"/>
	</g>
	<g>
		<polygon style="fill:none;stroke:#F2E399;stroke-miterlimit:10;" points="158.275,388.75 120.222,388.75 124.769,436.839 
			153.728,436.839 		"/>
		<polygon style="fill:#F2E399;" points="124.242,431.261 124.769,436.839 153.728,436.839 154.255,431.261 		"/>
		<path style="fill:#F2E399;" d="M158.762,387.071h-39.028c-0.592,0-1.073,0.48-1.073,1.073l0,0c0,0.593,0.48,1.073,1.073,1.073
			h39.028c0.593,0,1.073-0.48,1.073-1.073l0,0C159.835,387.552,159.355,387.071,158.762,387.071z"/>
		<g>
			<defs>
				<polygon id="SVGID_1_" points="158.275,388.75 120.222,388.75 124.769,436.839 153.728,436.839 				"/>
			</defs>
			<clipPath id="SVGID_00000091013109752046614980000007025744200272506278_">
				<use xlink:href="#SVGID_1_"  style="overflow:visible;"/>
			</clipPath>
			<g style="clip-path:url(#SVGID_00000091013109752046614980000007025744200272506278_);">
				<g>
					
						<rect x="116.708" y="388.695" transform="matrix(0.7071 -0.7071 0.7071 0.7071 -241.3713 198.0722)" style="fill:none;stroke:#F2E399;stroke-width:0.25;stroke-miterlimit:10;" width="3.387" height="3.387"/>
					
						<rect x="120.878" y="388.695" transform="matrix(0.7071 -0.7071 0.7071 0.7071 -240.15 201.0203)" style="fill:none;stroke:#F2E399;stroke-width:0.25;stroke-miterlimit:10;" width="3.387" height="3.387"/>
					
						<rect x="125.047" y="388.695" transform="matrix(0.7071 -0.7071 0.7071 0.7071 -238.9288 203.9688)" style="fill:none;stroke:#F2E399;stroke-width:0.25;stroke-miterlimit:10;" width="3.387" height="3.387"/>
					
						<rect x="129.216" y="388.695" transform="matrix(0.7071 -0.7071 0.7071 0.7071 -237.7038 206.9093)" style="fill:none;stroke:#F2E399;stroke-width:0.25;stroke-miterlimit:10;" width="3.387" height="3.387"/>
					
						<rect x="133.386" y="388.695" transform="matrix(0.7071 -0.7071 0.7071 0.7071 -236.4826 209.8575)" style="fill:none;stroke:#F2E399;stroke-width:0.25;stroke-miterlimit:10;" width="3.387" height="3.387"/>
					
						<rect x="137.555" y="388.695" transform="matrix(0.7071 -0.7071 0.7071 0.7071 -235.2651 212.8135)" style="fill:none;stroke:#F2E399;stroke-width:0.25;stroke-miterlimit:10;" width="3.387" height="3.387"/>
					
						<rect x="141.724" y="388.695" transform="matrix(0.7071 -0.7071 0.7071 0.7071 -234.044 215.7621)" style="fill:none;stroke:#F2E399;stroke-width:0.25;stroke-miterlimit:10;" width="3.387" height="3.387"/>
					
						<rect x="145.894" y="388.695" transform="matrix(0.7071 -0.7071 0.7071 0.7071 -232.8226 218.7101)" style="fill:none;stroke:#F2E399;stroke-width:0.25;stroke-miterlimit:10;" width="3.387" height="3.387"/>
					
						<rect x="150.063" y="388.695" transform="matrix(0.7071 -0.7071 0.7071 0.7071 -231.5978 221.6503)" style="fill:none;stroke:#F2E399;stroke-width:0.25;stroke-miterlimit:10;" width="3.387" height="3.387"/>
					
						<rect x="154.233" y="388.695" transform="matrix(0.7071 -0.7071 0.7071 0.7071 -230.3766 224.5985)" style="fill:none;stroke:#F2E399;stroke-width:0.25;stroke-miterlimit:10;" width="3.387" height="3.387"/>
					
						<rect x="158.402" y="388.695" transform="matrix(0.7071 -0.7071 0.7071 0.7071 -229.1589 227.5548)" style="fill:none;stroke:#F2E399;stroke-width:0.25;stroke-miterlimit:10;" width="3.387" height="3.387"/>
				</g>
				<g>
					
						<rect x="116.708" y="392.665" transform="matrix(0.7071 -0.7071 0.7071 0.7071 -244.1784 199.235)" style="fill:none;stroke:#F2E399;stroke-width:0.25;stroke-miterlimit:10;" width="3.387" height="3.387"/>
					
						<rect x="120.878" y="392.665" transform="matrix(0.7071 -0.7071 0.7071 0.7071 -242.957 202.183)" style="fill:none;stroke:#F2E399;stroke-width:0.25;stroke-miterlimit:10;" width="3.387" height="3.387"/>
					
						<rect x="125.047" y="392.665" transform="matrix(0.7071 -0.7071 0.7071 0.7071 -241.7359 205.1315)" style="fill:none;stroke:#F2E399;stroke-width:0.25;stroke-miterlimit:10;" width="3.387" height="3.387"/>
					
						<rect x="129.216" y="392.665" transform="matrix(0.7071 -0.7071 0.7071 0.7071 -240.5108 208.072)" style="fill:none;stroke:#F2E399;stroke-width:0.25;stroke-miterlimit:10;" width="3.387" height="3.387"/>
					
						<rect x="133.386" y="392.665" transform="matrix(0.7071 -0.7071 0.7071 0.7071 -239.2896 211.0202)" style="fill:none;stroke:#F2E399;stroke-width:0.25;stroke-miterlimit:10;" width="3.387" height="3.387"/>
					
						<rect x="137.555" y="392.665" transform="matrix(0.7071 -0.7071 0.7071 0.7071 -238.0722 213.9763)" style="fill:none;stroke:#F2E399;stroke-width:0.25;stroke-miterlimit:10;" width="3.387" height="3.387"/>
					
						<rect x="141.724" y="392.665" transform="matrix(0.7071 -0.7071 0.7071 0.7071 -236.851 216.9249)" style="fill:none;stroke:#F2E399;stroke-width:0.25;stroke-miterlimit:10;" width="3.387" height="3.387"/>
					
						<rect x="145.894" y="392.665" transform="matrix(0.7071 -0.7071 0.7071 0.7071 -235.6297 219.8728)" style="fill:none;stroke:#F2E399;stroke-width:0.25;stroke-miterlimit:10;" width="3.387" height="3.387"/>
					
						<rect x="150.063" y="392.665" transform="matrix(0.7071 -0.7071 0.7071 0.7071 -234.4048 222.813)" style="fill:none;stroke:#F2E399;stroke-width:0.25;stroke-miterlimit:10;" width="3.387" height="3.387"/>
					
						<rect x="154.233" y="392.665" transform="matrix(0.7071 -0.7071 0.7071 0.7071 -233.1837 225.7612)" style="fill:none;stroke:#F2E399;stroke-width:0.25;stroke-miterlimit:10;" width="3.387" height="3.387"/>
					
						<rect x="158.402" y="392.665" transform="matrix(0.7071 -0.7071 0.7071 0.7071 -231.9659 228.7176)" style="fill:none;stroke:#F2E399;stroke-width:0.25;stroke-miterlimit:10;" width="3.387" height="3.387"/>
				</g>
				<g>
					
						<rect x="116.708" y="396.634" transform="matrix(0.7071 -0.7071 0.7071 0.7071 -246.9813 200.3901)" style="fill:none;stroke:#F2E399;stroke-width:0.25;stroke-miterlimit:10;" width="3.387" height="3.387"/>
					
						<rect x="120.878" y="396.634" transform="matrix(0.7071 -0.7071 0.7071 0.7071 -245.76 203.3381)" style="fill:none;stroke:#F2E399;stroke-width:0.25;stroke-miterlimit:10;" width="3.387" height="3.387"/>
					
						<rect x="125.047" y="396.634" transform="matrix(0.7071 -0.7071 0.7071 0.7071 -244.5389 206.2865)" style="fill:none;stroke:#F2E399;stroke-width:0.25;stroke-miterlimit:10;" width="3.387" height="3.387"/>
					
						<rect x="129.216" y="396.634" transform="matrix(0.7071 -0.7071 0.7071 0.7071 -243.3138 209.2269)" style="fill:none;stroke:#F2E399;stroke-width:0.25;stroke-miterlimit:10;" width="3.387" height="3.387"/>
					
						<rect x="133.386" y="396.634" transform="matrix(0.7071 -0.7071 0.7071 0.7071 -242.0927 212.175)" style="fill:none;stroke:#F2E399;stroke-width:0.25;stroke-miterlimit:10;" width="3.387" height="3.387"/>
					
						<rect x="137.555" y="396.634" transform="matrix(0.7071 -0.7071 0.7071 0.7071 -240.8754 215.1311)" style="fill:none;stroke:#F2E399;stroke-width:0.25;stroke-miterlimit:10;" width="3.387" height="3.387"/>
					
						<rect x="141.724" y="396.634" transform="matrix(0.7071 -0.7071 0.7071 0.7071 -239.6543 218.0796)" style="fill:none;stroke:#F2E399;stroke-width:0.25;stroke-miterlimit:10;" width="3.387" height="3.387"/>
					
						<rect x="145.894" y="396.634" transform="matrix(0.7071 -0.7071 0.7071 0.7071 -238.433 221.0275)" style="fill:none;stroke:#F2E399;stroke-width:0.25;stroke-miterlimit:10;" width="3.387" height="3.387"/>
					
						<rect x="150.063" y="396.634" transform="matrix(0.7071 -0.7071 0.7071 0.7071 -237.2082 223.9676)" style="fill:none;stroke:#F2E399;stroke-width:0.25;stroke-miterlimit:10;" width="3.387" height="3.387"/>
					
						<rect x="154.233" y="396.634" transform="matrix(0.7071 -0.7071 0.7071 0.7071 -235.987 226.9157)" style="fill:none;stroke:#F2E399;stroke-width:0.25;stroke-miterlimit:10;" width="3.387" height="3.387"/>
					
						<rect x="158.402" y="396.634" transform="matrix(0.7071 -0.7071 0.7071 0.7071 -234.7694 229.8721)" style="fill:none;stroke:#F2E399;stroke-width:0.25;stroke-miterlimit:10;" width="3.387" height="3.387"/>
				</g>
				<g>
					
						<rect x="116.708" y="400.604" transform="matrix(0.7071 -0.7071 0.7071 0.7071 -249.7883 201.5528)" style="fill:none;stroke:#F2E399;stroke-width:0.25;stroke-miterlimit:10;" width="3.387" height="3.387"/>
					
						<rect x="120.878" y="400.604" transform="matrix(0.7071 -0.7071 0.7071 0.7071 -248.567 204.5008)" style="fill:none;stroke:#F2E399;stroke-width:0.25;stroke-miterlimit:10;" width="3.387" height="3.387"/>
					
						<rect x="125.047" y="400.604" transform="matrix(0.7071 -0.7071 0.7071 0.7071 -247.3459 207.4492)" style="fill:none;stroke:#F2E399;stroke-width:0.25;stroke-miterlimit:10;" width="3.387" height="3.387"/>
					
						<rect x="129.216" y="400.604" transform="matrix(0.7071 -0.7071 0.7071 0.7071 -246.1207 210.3895)" style="fill:none;stroke:#F2E399;stroke-width:0.25;stroke-miterlimit:10;" width="3.387" height="3.387"/>
					
						<rect x="133.386" y="400.604" transform="matrix(0.7071 -0.7071 0.7071 0.7071 -244.8996 213.3377)" style="fill:none;stroke:#F2E399;stroke-width:0.25;stroke-miterlimit:10;" width="3.387" height="3.387"/>
					
						<rect x="137.555" y="400.604" transform="matrix(0.7071 -0.7071 0.7071 0.7071 -243.6824 216.2938)" style="fill:none;stroke:#F2E399;stroke-width:0.25;stroke-miterlimit:10;" width="3.387" height="3.387"/>
					
						<rect x="141.724" y="400.604" transform="matrix(0.7071 -0.7071 0.7071 0.7071 -242.4613 219.2423)" style="fill:none;stroke:#F2E399;stroke-width:0.25;stroke-miterlimit:10;" width="3.387" height="3.387"/>
					
						<rect x="145.894" y="400.604" transform="matrix(0.7071 -0.7071 0.7071 0.7071 -241.24 222.1902)" style="fill:none;stroke:#F2E399;stroke-width:0.25;stroke-miterlimit:10;" width="3.387" height="3.387"/>
					
						<rect x="150.063" y="400.604" transform="matrix(0.7071 -0.7071 0.7071 0.7071 -240.0151 225.1302)" style="fill:none;stroke:#F2E399;stroke-width:0.25;stroke-miterlimit:10;" width="3.387" height="3.387"/>
					
						<rect x="154.233" y="400.604" transform="matrix(0.7071 -0.7071 0.7071 0.7071 -238.794 228.0784)" style="fill:none;stroke:#F2E399;stroke-width:0.25;stroke-miterlimit:10;" width="3.387" height="3.387"/>
					
						<rect x="158.402" y="400.604" transform="matrix(0.7071 -0.7071 0.7071 0.7071 -237.5764 231.0348)" style="fill:none;stroke:#F2E399;stroke-width:0.25;stroke-miterlimit:10;" width="3.387" height="3.387"/>
				</g>
				<g>
					
						<rect x="116.708" y="404.574" transform="matrix(0.7071 -0.7071 0.7071 0.7071 -252.5953 202.7155)" style="fill:none;stroke:#F2E399;stroke-width:0.25;stroke-miterlimit:10;" width="3.387" height="3.387"/>
					
						<rect x="120.878" y="404.574" transform="matrix(0.7071 -0.7071 0.7071 0.7071 -251.374 205.6635)" style="fill:none;stroke:#F2E399;stroke-width:0.25;stroke-miterlimit:10;" width="3.387" height="3.387"/>
					
						<rect x="125.047" y="404.574" transform="matrix(0.7071 -0.7071 0.7071 0.7071 -250.1529 208.6119)" style="fill:none;stroke:#F2E399;stroke-width:0.25;stroke-miterlimit:10;" width="3.387" height="3.387"/>
					
						<rect x="129.216" y="404.574" transform="matrix(0.7071 -0.7071 0.7071 0.7071 -248.9277 211.5522)" style="fill:none;stroke:#F2E399;stroke-width:0.25;stroke-miterlimit:10;" width="3.387" height="3.387"/>
					
						<rect x="133.386" y="404.574" transform="matrix(0.7071 -0.7071 0.7071 0.7071 -247.7065 214.5003)" style="fill:none;stroke:#F2E399;stroke-width:0.25;stroke-miterlimit:10;" width="3.387" height="3.387"/>
					
						<rect x="137.555" y="404.574" transform="matrix(0.7071 -0.7071 0.7071 0.7071 -246.4894 217.4565)" style="fill:none;stroke:#F2E399;stroke-width:0.25;stroke-miterlimit:10;" width="3.387" height="3.387"/>
					
						<rect x="141.724" y="404.574" transform="matrix(0.7071 -0.7071 0.7071 0.7071 -245.2683 220.405)" style="fill:none;stroke:#F2E399;stroke-width:0.25;stroke-miterlimit:10;" width="3.387" height="3.387"/>
					
						<rect x="145.894" y="404.574" transform="matrix(0.7071 -0.7071 0.7071 0.7071 -244.047 223.3529)" style="fill:none;stroke:#F2E399;stroke-width:0.25;stroke-miterlimit:10;" width="3.387" height="3.387"/>
					
						<rect x="150.063" y="404.574" transform="matrix(0.7071 -0.7071 0.7071 0.7071 -242.8221 226.2928)" style="fill:none;stroke:#F2E399;stroke-width:0.25;stroke-miterlimit:10;" width="3.387" height="3.387"/>
					
						<rect x="154.233" y="404.574" transform="matrix(0.7071 -0.7071 0.7071 0.7071 -241.6009 229.241)" style="fill:none;stroke:#F2E399;stroke-width:0.25;stroke-miterlimit:10;" width="3.387" height="3.387"/>
					
						<rect x="158.402" y="404.574" transform="matrix(0.7071 -0.7071 0.7071 0.7071 -240.3835 232.1975)" style="fill:none;stroke:#F2E399;stroke-width:0.25;stroke-miterlimit:10;" width="3.387" height="3.387"/>
				</g>
				<g>
					
						<rect x="116.708" y="408.543" transform="matrix(0.7071 -0.7071 0.7071 0.7071 -255.4023 203.8782)" style="fill:none;stroke:#F2E399;stroke-width:0.25;stroke-miterlimit:10;" width="3.387" height="3.387"/>
					
						<rect x="120.878" y="408.543" transform="matrix(0.7071 -0.7071 0.7071 0.7071 -254.181 206.8262)" style="fill:none;stroke:#F2E399;stroke-width:0.25;stroke-miterlimit:10;" width="3.387" height="3.387"/>
					
						<rect x="125.047" y="408.543" transform="matrix(0.7071 -0.7071 0.7071 0.7071 -252.9599 209.7746)" style="fill:none;stroke:#F2E399;stroke-width:0.25;stroke-miterlimit:10;" width="3.387" height="3.387"/>
					
						<rect x="129.216" y="408.543" transform="matrix(0.7071 -0.7071 0.7071 0.7071 -251.7346 212.7148)" style="fill:none;stroke:#F2E399;stroke-width:0.25;stroke-miterlimit:10;" width="3.387" height="3.387"/>
					
						<rect x="133.386" y="408.543" transform="matrix(0.7071 -0.7071 0.7071 0.7071 -250.5135 215.663)" style="fill:none;stroke:#F2E399;stroke-width:0.25;stroke-miterlimit:10;" width="3.387" height="3.387"/>
					
						<rect x="137.555" y="408.543" transform="matrix(0.7071 -0.7071 0.7071 0.7071 -249.2964 218.6192)" style="fill:none;stroke:#F2E399;stroke-width:0.25;stroke-miterlimit:10;" width="3.387" height="3.387"/>
					
						<rect x="141.724" y="408.543" transform="matrix(0.7071 -0.7071 0.7071 0.7071 -248.0753 221.5677)" style="fill:none;stroke:#F2E399;stroke-width:0.25;stroke-miterlimit:10;" width="3.387" height="3.387"/>
					
						<rect x="145.894" y="408.543" transform="matrix(0.7071 -0.7071 0.7071 0.7071 -246.854 224.5156)" style="fill:none;stroke:#F2E399;stroke-width:0.25;stroke-miterlimit:10;" width="3.387" height="3.387"/>
					
						<rect x="150.063" y="408.543" transform="matrix(0.7071 -0.7071 0.7071 0.7071 -245.629 227.4555)" style="fill:none;stroke:#F2E399;stroke-width:0.25;stroke-miterlimit:10;" width="3.387" height="3.387"/>
					
						<rect x="154.233" y="408.543" transform="matrix(0.7071 -0.7071 0.7071 0.7071 -244.4079 230.4036)" style="fill:none;stroke:#F2E399;stroke-width:0.25;stroke-miterlimit:10;" width="3.387" height="3.387"/>
					
						<rect x="158.402" y="408.543" transform="matrix(0.7071 -0.7071 0.7071 0.7071 -243.1904 233.3602)" style="fill:none;stroke:#F2E399;stroke-width:0.25;stroke-miterlimit:10;" width="3.387" height="3.387"/>
				</g>
				<g>
					
						<rect x="116.708" y="412.513" transform="matrix(0.7071 -0.7071 0.7071 0.7071 -258.2093 205.0409)" style="fill:none;stroke:#F2E399;stroke-width:0.25;stroke-miterlimit:10;" width="3.387" height="3.387"/>
					
						<rect x="120.878" y="412.513" transform="matrix(0.7071 -0.7071 0.7071 0.7071 -256.9879 207.9888)" style="fill:none;stroke:#F2E399;stroke-width:0.25;stroke-miterlimit:10;" width="3.387" height="3.387"/>
					
						<rect x="125.047" y="412.513" transform="matrix(0.7071 -0.7071 0.7071 0.7071 -255.7669 210.9373)" style="fill:none;stroke:#F2E399;stroke-width:0.25;stroke-miterlimit:10;" width="3.387" height="3.387"/>
					
						<rect x="129.216" y="412.513" transform="matrix(0.7071 -0.7071 0.7071 0.7071 -254.5415 213.8775)" style="fill:none;stroke:#F2E399;stroke-width:0.25;stroke-miterlimit:10;" width="3.387" height="3.387"/>
					
						<rect x="133.386" y="412.513" transform="matrix(0.7071 -0.7071 0.7071 0.7071 -253.3204 216.8256)" style="fill:none;stroke:#F2E399;stroke-width:0.25;stroke-miterlimit:10;" width="3.387" height="3.387"/>
					
						<rect x="137.555" y="412.513" transform="matrix(0.7071 -0.7071 0.7071 0.7071 -252.1033 219.7819)" style="fill:none;stroke:#F2E399;stroke-width:0.25;stroke-miterlimit:10;" width="3.387" height="3.387"/>
					
						<rect x="141.724" y="412.513" transform="matrix(0.7071 -0.7071 0.7071 0.7071 -250.8823 222.7304)" style="fill:none;stroke:#F2E399;stroke-width:0.25;stroke-miterlimit:10;" width="3.387" height="3.387"/>
					
						<rect x="145.894" y="412.513" transform="matrix(0.7071 -0.7071 0.7071 0.7071 -249.661 225.6783)" style="fill:none;stroke:#F2E399;stroke-width:0.25;stroke-miterlimit:10;" width="3.387" height="3.387"/>
					
						<rect x="150.063" y="412.513" transform="matrix(0.7071 -0.7071 0.7071 0.7071 -248.4359 228.6181)" style="fill:none;stroke:#F2E399;stroke-width:0.25;stroke-miterlimit:10;" width="3.387" height="3.387"/>
					
						<rect x="154.233" y="412.513" transform="matrix(0.7071 -0.7071 0.7071 0.7071 -247.2148 231.5663)" style="fill:none;stroke:#F2E399;stroke-width:0.25;stroke-miterlimit:10;" width="3.387" height="3.387"/>
					
						<rect x="158.402" y="412.513" transform="matrix(0.7071 -0.7071 0.7071 0.7071 -245.9974 234.5229)" style="fill:none;stroke:#F2E399;stroke-width:0.25;stroke-miterlimit:10;" width="3.387" height="3.387"/>
				</g>
				<g>
					
						<rect x="116.708" y="416.483" transform="matrix(0.7071 -0.7071 0.7071 0.7071 -261.0207 206.2115)" style="fill:none;stroke:#F2E399;stroke-width:0.25;stroke-miterlimit:10;" width="3.387" height="3.387"/>
					
						<rect x="120.878" y="416.483" transform="matrix(0.7071 -0.7071 0.7071 0.7071 -259.7993 209.1595)" style="fill:none;stroke:#F2E399;stroke-width:0.25;stroke-miterlimit:10;" width="3.387" height="3.387"/>
					
						<rect x="125.047" y="416.483" transform="matrix(0.7071 -0.7071 0.7071 0.7071 -258.5782 212.108)" style="fill:none;stroke:#F2E399;stroke-width:0.25;stroke-miterlimit:10;" width="3.387" height="3.387"/>
					
						<rect x="129.216" y="416.483" transform="matrix(0.7071 -0.7071 0.7071 0.7071 -257.3527 215.0482)" style="fill:none;stroke:#F2E399;stroke-width:0.25;stroke-miterlimit:10;" width="3.387" height="3.387"/>
					
						<rect x="133.386" y="416.483" transform="matrix(0.7071 -0.7071 0.7071 0.7071 -256.1315 217.9964)" style="fill:none;stroke:#F2E399;stroke-width:0.25;stroke-miterlimit:10;" width="3.387" height="3.387"/>
					
						<rect x="137.555" y="416.483" transform="matrix(0.7071 -0.7071 0.7071 0.7071 -254.9145 220.9528)" style="fill:none;stroke:#F2E399;stroke-width:0.25;stroke-miterlimit:10;" width="3.387" height="3.387"/>
					
						<rect x="141.724" y="416.483" transform="matrix(0.7071 -0.7071 0.7071 0.7071 -253.6933 223.9014)" style="fill:none;stroke:#F2E399;stroke-width:0.25;stroke-miterlimit:10;" width="3.387" height="3.387"/>
					
						<rect x="145.894" y="416.483" transform="matrix(0.7071 -0.7071 0.7071 0.7071 -252.472 226.8493)" style="fill:none;stroke:#F2E399;stroke-width:0.25;stroke-miterlimit:10;" width="3.387" height="3.387"/>
					
						<rect x="150.063" y="416.483" transform="matrix(0.7071 -0.7071 0.7071 0.7071 -251.2468 229.7892)" style="fill:none;stroke:#F2E399;stroke-width:0.25;stroke-miterlimit:10;" width="3.387" height="3.387"/>
					
						<rect x="154.233" y="416.483" transform="matrix(0.7071 -0.7071 0.7071 0.7071 -250.0256 232.7374)" style="fill:none;stroke:#F2E399;stroke-width:0.25;stroke-miterlimit:10;" width="3.387" height="3.387"/>
					
						<rect x="158.402" y="416.483" transform="matrix(0.7071 -0.7071 0.7071 0.7071 -248.8082 235.6941)" style="fill:none;stroke:#F2E399;stroke-width:0.25;stroke-miterlimit:10;" width="3.387" height="3.387"/>
				</g>
				<g>
					
						<rect x="116.708" y="420.452" transform="matrix(0.7071 -0.7071 0.7071 0.7071 -263.8277 207.3743)" style="fill:none;stroke:#F2E399;stroke-width:0.25;stroke-miterlimit:10;" width="3.387" height="3.387"/>
					
						<rect x="120.878" y="420.453" transform="matrix(0.7071 -0.7071 0.7071 0.7071 -262.6064 210.3223)" style="fill:none;stroke:#F2E399;stroke-width:0.25;stroke-miterlimit:10;" width="3.387" height="3.387"/>
					
						<rect x="125.047" y="420.453" transform="matrix(0.7071 -0.7071 0.7071 0.7071 -261.3853 213.2708)" style="fill:none;stroke:#F2E399;stroke-width:0.25;stroke-miterlimit:10;" width="3.387" height="3.387"/>
					
						<rect x="129.216" y="420.452" transform="matrix(0.7071 -0.7071 0.7071 0.7071 -260.1597 216.2109)" style="fill:none;stroke:#F2E399;stroke-width:0.25;stroke-miterlimit:10;" width="3.387" height="3.387"/>
					
						<rect x="133.386" y="420.452" transform="matrix(0.7071 -0.7071 0.7071 0.7071 -258.9385 219.1591)" style="fill:none;stroke:#F2E399;stroke-width:0.25;stroke-miterlimit:10;" width="3.387" height="3.387"/>
					
						<rect x="137.555" y="420.452" transform="matrix(0.7071 -0.7071 0.7071 0.7071 -257.7215 222.1156)" style="fill:none;stroke:#F2E399;stroke-width:0.25;stroke-miterlimit:10;" width="3.387" height="3.387"/>
					
						<rect x="141.724" y="420.452" transform="matrix(0.7071 -0.7071 0.7071 0.7071 -256.5004 225.0641)" style="fill:none;stroke:#F2E399;stroke-width:0.25;stroke-miterlimit:10;" width="3.387" height="3.387"/>
					
						<rect x="145.894" y="420.453" transform="matrix(0.7071 -0.7071 0.7071 0.7071 -255.279 228.0121)" style="fill:none;stroke:#F2E399;stroke-width:0.25;stroke-miterlimit:10;" width="3.387" height="3.387"/>
					
						<rect x="150.063" y="420.452" transform="matrix(0.7071 -0.7071 0.7071 0.7071 -254.0538 230.9519)" style="fill:none;stroke:#F2E399;stroke-width:0.25;stroke-miterlimit:10;" width="3.387" height="3.387"/>
					
						<rect x="154.233" y="420.452" transform="matrix(0.7071 -0.7071 0.7071 0.7071 -252.8326 233.9001)" style="fill:none;stroke:#F2E399;stroke-width:0.25;stroke-miterlimit:10;" width="3.387" height="3.387"/>
					
						<rect x="158.402" y="420.452" transform="matrix(0.7071 -0.7071 0.7071 0.7071 -251.6153 236.8569)" style="fill:none;stroke:#F2E399;stroke-width:0.25;stroke-miterlimit:10;" width="3.387" height="3.387"/>
				</g>
				<g>
					
						<rect x="116.708" y="424.422" transform="matrix(0.7071 -0.7071 0.7071 0.7071 -266.6302 208.529)" style="fill:none;stroke:#F2E399;stroke-width:0.25;stroke-miterlimit:10;" width="3.387" height="3.387"/>
					
						<rect x="120.878" y="424.422" transform="matrix(0.7071 -0.7071 0.7071 0.7071 -265.4089 211.4769)" style="fill:none;stroke:#F2E399;stroke-width:0.25;stroke-miterlimit:10;" width="3.387" height="3.387"/>
					
						<rect x="125.047" y="424.422" transform="matrix(0.7071 -0.7071 0.7071 0.7071 -264.1878 214.4254)" style="fill:none;stroke:#F2E399;stroke-width:0.25;stroke-miterlimit:10;" width="3.387" height="3.387"/>
					
						<rect x="129.216" y="424.422" transform="matrix(0.7071 -0.7071 0.7071 0.7071 -262.9623 217.3653)" style="fill:none;stroke:#F2E399;stroke-width:0.25;stroke-miterlimit:10;" width="3.387" height="3.387"/>
					
						<rect x="133.386" y="424.422" transform="matrix(0.7071 -0.7071 0.7071 0.7071 -261.7412 220.3135)" style="fill:none;stroke:#F2E399;stroke-width:0.25;stroke-miterlimit:10;" width="3.387" height="3.387"/>
					
						<rect x="137.555" y="424.422" transform="matrix(0.7071 -0.7071 0.7071 0.7071 -260.5243 223.27)" style="fill:none;stroke:#F2E399;stroke-width:0.25;stroke-miterlimit:10;" width="3.387" height="3.387"/>
					
						<rect x="141.724" y="424.422" transform="matrix(0.7071 -0.7071 0.7071 0.7071 -259.3033 226.2185)" style="fill:none;stroke:#F2E399;stroke-width:0.25;stroke-miterlimit:10;" width="3.387" height="3.387"/>
					
						<rect x="145.894" y="424.422" transform="matrix(0.7071 -0.7071 0.7071 0.7071 -258.0819 229.1664)" style="fill:none;stroke:#F2E399;stroke-width:0.25;stroke-miterlimit:10;" width="3.387" height="3.387"/>
					
						<rect x="150.063" y="424.422" transform="matrix(0.7071 -0.7071 0.7071 0.7071 -256.8567 232.106)" style="fill:none;stroke:#F2E399;stroke-width:0.25;stroke-miterlimit:10;" width="3.387" height="3.387"/>
					
						<rect x="154.233" y="424.422" transform="matrix(0.7071 -0.7071 0.7071 0.7071 -255.6356 235.0542)" style="fill:none;stroke:#F2E399;stroke-width:0.25;stroke-miterlimit:10;" width="3.387" height="3.387"/>
					
						<rect x="158.402" y="424.422" transform="matrix(0.7071 -0.7071 0.7071 0.7071 -254.4184 238.0109)" style="fill:none;stroke:#F2E399;stroke-width:0.25;stroke-miterlimit:10;" width="3.387" height="3.387"/>
				</g>
				<g>
					
						<rect x="116.708" y="428.392" transform="matrix(0.7071 -0.7071 0.7071 0.7071 -269.4372 209.6917)" style="fill:none;stroke:#F2E399;stroke-width:0.25;stroke-miterlimit:10;" width="3.387" height="3.387"/>
					
						<rect x="120.878" y="428.392" transform="matrix(0.7071 -0.7071 0.7071 0.7071 -268.2159 212.6396)" style="fill:none;stroke:#F2E399;stroke-width:0.25;stroke-miterlimit:10;" width="3.387" height="3.387"/>
					
						<rect x="125.047" y="428.392" transform="matrix(0.7071 -0.7071 0.7071 0.7071 -266.9948 215.5881)" style="fill:none;stroke:#F2E399;stroke-width:0.25;stroke-miterlimit:10;" width="3.387" height="3.387"/>
					
						<rect x="129.216" y="428.392" transform="matrix(0.7071 -0.7071 0.7071 0.7071 -265.7693 218.528)" style="fill:none;stroke:#F2E399;stroke-width:0.25;stroke-miterlimit:10;" width="3.387" height="3.387"/>
					
						<rect x="133.386" y="428.392" transform="matrix(0.7071 -0.7071 0.7071 0.7071 -264.5481 221.4761)" style="fill:none;stroke:#F2E399;stroke-width:0.25;stroke-miterlimit:10;" width="3.387" height="3.387"/>
					
						<rect x="137.555" y="428.392" transform="matrix(0.7071 -0.7071 0.7071 0.7071 -263.3313 224.4326)" style="fill:none;stroke:#F2E399;stroke-width:0.25;stroke-miterlimit:10;" width="3.387" height="3.387"/>
					
						<rect x="141.724" y="428.392" transform="matrix(0.7071 -0.7071 0.7071 0.7071 -262.1103 227.3812)" style="fill:none;stroke:#F2E399;stroke-width:0.25;stroke-miterlimit:10;" width="3.387" height="3.387"/>
					
						<rect x="145.894" y="428.392" transform="matrix(0.7071 -0.7071 0.7071 0.7071 -260.8889 230.3291)" style="fill:none;stroke:#F2E399;stroke-width:0.25;stroke-miterlimit:10;" width="3.387" height="3.387"/>
					
						<rect x="150.063" y="428.392" transform="matrix(0.7071 -0.7071 0.7071 0.7071 -259.6636 233.2687)" style="fill:none;stroke:#F2E399;stroke-width:0.25;stroke-miterlimit:10;" width="3.387" height="3.387"/>
					
						<rect x="154.233" y="428.392" transform="matrix(0.7071 -0.7071 0.7071 0.7071 -258.4425 236.2168)" style="fill:none;stroke:#F2E399;stroke-width:0.25;stroke-miterlimit:10;" width="3.387" height="3.387"/>
					
						<rect x="158.402" y="428.392" transform="matrix(0.7071 -0.7071 0.7071 0.7071 -257.2254 239.1736)" style="fill:none;stroke:#F2E399;stroke-width:0.25;stroke-miterlimit:10;" width="3.387" height="3.387"/>
				</g>
			</g>
		</g>
	</g>
</g>
</svg>
